/* XPM */
static char *Application_xpm[] = {
/* columns rows colors chars-per-pixel */
"32 32 5 1 ",
"  c None",
". c black",
"X c #008080",
"o c #C0C0C0",
"O c white",
/* pixels */
"                                ",
"                                ",
"                                ",
"                                ",
"                                ",
"                                ",
"                                ",
"                                ",
"                                ",
"................................",
".OOOOOOOOOOOOOOOOOOOOOOOOOOOOOO.",
".OOOOOOOOOOOOOOOOOOOOOOOOOOOOOO.",
".OooooooooooooooooooOOOOOooXooO.",
".OOOOOOOOOOOOOOOOOOOOOOOOOOOOOO.",
".OooooooooooooooooooOoooOoooooO.",
".OooooooooooooooooooOoooOoooooO.",
".OooooooooooooooooooOOOOOoooooO.",
".OooooooooooooooooooOOoOOoooooO.",
".OooooooooooooooooooOOoOOoooooO.",
".OooooooooooooooooooOoooOoooooO.",
".OOOOOOOOOOOOOOOOOOOOOOOOOOOOOO.",
".OOOOOOOOOOOOOOOOOOOOOOOOOOOOOO.",
"................................",
"                                ",
"                                ",
"                                ",
"                                ",
"                                ",
"                                ",
"                                ",
"                                ",
"                                "
};
